Coordinates
version=1
nRows=29
nColumns=24
inDegrees=yes

Units are S.I. units (second, meters, Newtons, ...)
Angles are in degrees.

endheader
time	pelvis_tilt	pelvis_list	pelvis_rotation	pelvis_tx	pelvis_ty	pelvis_tz	hip_flexion_r	hip_adduction_r	hip_rotation_r	knee_angle_r	ankle_angle_r	subtalar_angle_r	mtp_angle_r	hip_flexion_l	hip_adduction_l	hip_rotation_l	knee_angle_l	ankle_angle_l	subtalar_angle_l	mtp_angle_l	lumbar_extension	lumbar_bending	lumbar_rotation
      0.91500000	      8.57161953	     -6.41462941	     -2.35795792	     -0.50464303	      0.89453245	      0.00028777	    -31.38456513	      8.24314002	     -2.25987592	     -8.04288625	     14.81820117	      5.92279503	     46.40061446	     13.02690158	     -3.49681858	     -6.64251692	     -3.03183600	      9.90465588	     -0.95598493	     31.09081722	    -19.93832268	      5.19316487	      4.87759366
      0.92000000	      8.47137278	     -6.23061893	     -2.40752666	     -0.49619959	      0.89372842	      0.00001492	    -31.23034793	      7.90894678	     -2.10681681	     -9.07597618	     14.45268384	      6.01284634	     47.27503772	     13.24823658	     -3.23616790	     -6.30754468	     -3.73580504	      9.48003265	     -1.63562255	     33.10801377	    -19.79824518	      4.97398597	      4.78040354
      0.92500000	      8.31100145	     -6.01771351	     -2.35880055	     -0.48777860	      0.89289086	     -0.00044076	    -30.93343602	      7.59257251	     -2.10070015	    -10.22905896	     14.07179791	      6.29547086	     47.88140627	     13.60555405	     -2.92128002	     -5.80638974	     -4.66883124	      9.26185977	     -2.25591088	     33.27292740	    -19.58654051	      4.75862398	      4.58744496
      0.93000000	      8.16969080	     -5.74397458	     -2.21860669	     -0.47936082	      0.89214963	     -0.00094857	    -30.61526919	      7.28246480	     -2.12644524	    -11.40965457	     13.40482434	      6.10515861	     50.15527133	     13.98478792	     -2.52510712	     -5.24666690	     -5.74377946	      8.90827085	     -2.95914596	     34.10410712	    -19.38925405	      4.48863636	      4.21100225
      0.93500000	      8.02199263	     -5.46047254	     -2.19366579	     -0.47101705	      0.89153319	     -0.00135444	    -30.19166731	      6.89897495	     -2.03097507	    -12.76219466	     12.80754811	      6.09173732	     52.22346236	     14.39107952	     -2.14461955	     -4.87839442	     -6.97289239	      8.63494226	     -3.64251251	     34.85946621	    -19.20384199	      4.17669653	      4.01573695
      0.94000000	      7.80689921	     -5.16741821	     -2.01795624	     -0.46270727	      0.89087608	     -0.00195974	    -29.62726817	      6.59346069	     -2.05727496	    -14.21629648	     12.08601450	      6.00382335	     53.44772465	     14.92736171	     -1.71913393	     -4.30145418	     -8.33956551	      8.35789982	     -4.26205268	     35.20802351	    -18.93879241	      3.89664159	      3.64139062
      0.94500000	      7.61975745	     -4.83909541	     -1.89270429	     -0.45443597	      0.89033286	     -0.00252411	    -29.00859740	      6.22897906	     -2.02613205	    -15.80040802	     11.35216148	      5.82014984	     55.62475129	     15.43776824	     -1.26725772	     -3.87997277	     -9.78802432	      8.17678954	     -4.83334593	     35.77948694	    -18.71587630	      3.56193700	      3.32601417
      0.95000000	      7.36228662	     -4.52353841	     -1.72441926	     -0.44622673	      0.88976885	     -0.00315795	    -28.21651757	      5.89994591	     -2.05037989	    -17.55520748	     10.60723142	      5.80720275	     56.22547106	     16.05593126	     -0.82296000	     -3.42930558	    -11.33880207	      8.03387484	     -5.22490803	     35.88321299	    -18.42180563	      3.25368410	      3.00091274
      0.95500000	      7.18744348	     -4.17866920	     -1.53044566	     -0.43800644	      0.88941492	     -0.00378190	    -27.47052349	      5.56755334	     -2.06094744	    -19.32441774	      9.48022858	      5.27347237	     58.91228129	     16.53431115	     -0.33907317	     -2.99186167	    -12.82410977	      7.85778308	     -5.67644005	     36.30434118	    -18.22069631	      2.90609885	      2.60435502
      0.96000000	      6.92116023	     -3.84624312	     -1.36711030	     -0.42986154	      0.88895819	     -0.00443335	    -26.50274818	      5.22888580	     -2.05846098	    -21.32971557	      8.60047882	      5.06466444	     59.46885745	     17.12507691	      0.12478834	     -2.62699306	    -14.37755440	      7.84530784	     -6.00292324	     36.36394808	    -17.92942789	      2.57541973	      2.25875252
      0.96500000	      6.67319428	     -3.52421907	     -1.18242645	     -0.42174119	      0.88860891	     -0.00506187	    -25.50212998	      4.92459168	     -2.03914551	    -23.37613627	      7.46717187	      4.59219053	     60.51805951	     17.66175753	      0.57720211	     -2.29775784	    -15.88172092	      7.81083132	     -6.29863535	     36.41512672	    -17.66368716	      2.25078893	      1.89650825
      0.97000000	      6.45702835	     -3.15961542	     -1.03881261	     -0.41362778	      0.88836214	     -0.00564049	    -24.44580533	      4.55761340	     -2.04694266	    -25.55700671	      6.33473650	      4.01136399	     61.51368252	     18.08975855	      1.05795505	     -2.07103157	    -17.26650400	      7.83877027	     -6.48873863	     36.42776389	    -17.43538503	      1.86502695	      1.58790479
      0.97500000	      6.35610976	     -2.73643864	     -0.91334610	     -0.40550583	      0.88831102	     -0.00619824	    -23.45577777	      4.11126333	     -2.12808105	    -27.79257835	      5.09913713	      3.26268869	     63.43674996	     18.30401409	      1.58870406	     -1.93816838	    -18.49881711	      7.93314445	     -6.57054829	     36.29240847	    -17.33635795	      1.40412073	      1.31116302
      0.98000000	      6.17195276	     -2.34716364	     -0.81854112	     -0.39747128	      0.88820001	     -0.00672042	    -22.28843813	      3.70173849	     -2.13100026	    -30.15943121	      3.94756198	      2.50237735	     63.46709086	     18.56514537	      2.07311502	     -1.84446772	    -19.64851870	      8.06723814	     -6.69689057	     36.25841939	    -17.15626110	      0.97810074	      1.06809619
      0.98500000	      5.99755715	     -1.95238431	     -0.73285350	     -0.38948722	      0.88813934	     -0.00721028	    -21.07176591	      3.28220150	     -2.15798303	    -32.57684073	      2.76367242	      1.64630691	     63.45903782	     18.75321073	      2.55191802	     -1.80723776	    -20.68073540	      8.24941815	     -6.76196909	     36.17761358	    -16.99217022	      0.53985875	      0.83206770
      0.99000000	      5.82377851	     -1.54620266	     -0.66916181	     -0.38154470	      0.88812402	     -0.00768730	    -19.79986083	      2.83882675	     -2.19746458	    -35.03824148	      1.60216882	      0.67067219	     63.29985185	     18.86739571	      3.03299493	     -1.82300971	    -21.57568916	      8.48582254	     -6.79057357	     36.04544049	    -16.83295846	      0.08678220	      0.61890411
      0.99500000	      5.63068480	     -1.14934865	     -0.61494544	     -0.37366415	      0.88812836	     -0.00814957	    -18.45899322	      2.40071053	     -2.23939104	    -37.51994429	      0.46353487	     -0.39533993	     62.86642625	     18.94414666	      3.49514272	     -1.87972270	    -22.35949475	      8.76533245	     -6.75420671	     35.81786791	    -16.65840789	     -0.35637109	      0.41043909
      1.00000000	      5.44167480	     -0.73059227	     -0.57530743	     -0.36583900	      0.88816338	     -0.00860595	    -17.08127935	      1.93196495	     -2.28514373	    -40.03323943	     -0.36007809	     -1.37009392	     60.94915068	     18.93941069	      3.97679603	     -1.94709735	    -23.00289131	      9.20764437	     -6.58625684	     34.80675616	    -16.49256173	     -0.82444438	      0.20766286
      1.00500000	      5.31908118	     -0.29235689	     -0.57097081	     -0.35802713	      0.88837561	     -0.00901786	    -15.76091070	      1.42711891	     -2.33959388	    -42.46635761	     -1.30336228	     -2.75094928	     60.37415510	     18.77504688	      4.47035486	     -2.06858794	    -23.47526939	      9.58279923	     -6.59695189	     34.70062570	    -16.40101357	     -1.32346039	      0.06683342
      1.01000000	      5.12082820	      0.12806439	     -0.54502424	     -0.35028093	      0.88852444	     -0.00945278	    -14.32710274	      0.94041013	     -2.41232431	    -44.91296845	     -1.82769865	     -3.73399636	     57.22158131	     18.65361198	      4.94494735	     -2.17915663	    -23.87727193	     10.06622824	     -6.38566002	     33.74228635	    -16.22873134	     -1.79489974	     -0.11993746
      1.01500000	      4.92993910	      0.50403539	     -0.49679596	     -0.34258837	      0.88876310	     -0.00989666	    -12.90399948	      0.51258818	     -2.49249615	    -47.23871803	     -2.35103236	     -5.08050518	     55.71641195	     18.46933649	      5.37661267	     -2.24317109	    -24.17248212	     10.56198239	     -6.13184123	     33.38730136	    -16.06993091	     -2.21081455	     -0.29758854
      1.02000000	      4.85703289	      0.93207618	     -0.52650475	     -0.33490035	      0.88928135	     -0.01026568	    -11.60159968	      0.00210475	     -2.51258108	    -49.49631865	     -2.52445534	     -6.17803321	     52.71675988	     18.05453024	      5.85283186	     -2.39544293	    -24.27066911	     11.02178196	     -6.08244111	     32.53026969	    -16.04222507	     -2.69879327	     -0.45217995
      1.02500000	      4.79443975	      1.30635909	     -0.54128054	     -0.32725562	      0.88991681	     -0.01064530	    -10.31864466	     -0.44812584	     -2.55057580	    -51.60208120	     -2.77973420	     -7.64385556	     52.06240335	     17.58606687	      6.27718266	     -2.50314587	    -24.28390052	     11.40409997	     -6.04249449	     32.41973116	    -16.02845781	     -3.12112018	     -0.56704897
      1.03000000	      4.68080241	      1.65251475	     -0.52668758	     -0.31962895	      0.89054829	     -0.01101433	     -8.98077947	     -0.85632994	     -2.58523805	    -53.66049632	     -2.40182334	     -8.48441652	     48.08382840	     17.13051563	      6.67393751	     -2.55632063	    -24.22944274	     11.97843104	     -5.74333577	     31.28900484	    -15.95724087	     -3.50748455	     -0.76515032
      1.03500000	      4.58772589	      1.93521650	     -0.50988707	     -0.31203073	      0.89131676	     -0.01136281	     -7.67308822	     -1.19275461	     -2.61650566	    -55.56113205	     -2.12150277	     -9.62001009	     46.27779062	     16.61492275	      6.99765461	     -2.61306155	    -24.10425494	     12.50182286	     -5.41722863	     30.73982512	    -15.91022124	     -3.81973159	     -0.95108105
      1.04000000	      4.57963993	      2.20524923	     -0.53770693	     -0.30445341	      0.89231495	     -0.01164403	     -6.46804376	     -1.52166720	     -2.60425346	    -57.33202710	     -1.56378598	    -10.59693021	     44.08863371	     15.94551780	      7.30368087	     -2.68167717	    -23.85606326	     12.96106747	     -5.19602624	     30.02309021	    -15.95834358	     -4.12637528	     -1.06329836
      1.04500000	      4.60116661	      2.42602019	     -0.62233091	     -0.29689102	      0.89347166	     -0.01181906	     -5.29896909	     -1.79082628	     -2.51289961	    -58.95619047	     -0.92555463	    -11.61410513	     43.19600460	     15.19397312	      7.54733490	     -2.77759104	    -23.50265998	     13.29883917	     -5.14257467	     29.71554688	    -16.03487815	     -4.39003527	     -1.13830098
      1.05000000	      4.61684603	      2.62330482	     -0.62256449	     -0.28932807	      0.89465247	     -0.01209920	     -4.13719515	     -2.04683632	     -2.53756806	    -60.48717987	      0.00326027	    -12.16967364	     40.51101002	     14.43752241	      7.77878260	     -2.78316390	    -23.14924207	     13.81350142	     -4.70288631	     28.73123704	    -16.10618567	     -4.60539869	     -1.26125600
      1.05500000	      4.67704803	      2.76471620	     -0.73542647	     -0.28180775	      0.89601243	     -0.01219236	     -3.01537624	     -2.22852060	     -2.42020934	    -61.86572368	      0.85859814	    -12.95281154	     39.98859917	     13.58177086	      7.93324466	     -2.86994135	    -22.67178908	     14.10392735	     -4.62507463	     28.49043064	    -16.22325487	     -4.78353982	     -1.29205917
